#!OML:ASF F:\VICON\USERDATA\INSTALL\SteveWalk\SteveWalk.ASF
:FULLY-SPECIFIED
:DEGREES
348
root 0.232615 15.942 31.9425 16.6065 7.72943 -1.28894
lowerback -13.9776 -0.880603 2.64379
upperback -4.32293 -1.61122 2.32687
thorax 3.26905 -0.786839 0.676066
lowerneck -5.84702 -2.2866 -2.39715
upperneck 10.6652 -2.90324 0.614613
head 4.6393 -1.49526 0.46584
rclavicle 7.62836e-015 -3.26007e-014
rhumerus -76.888 -44.6064 -19.9445
rradius 10.57
rwrist 49.9023
rhand -16.459 -36.032
rfingers 7.12502
rthumb 9.75738 -65.7859
lclavicle 7.62836e-015 -3.26007e-014
lhumerus -30.5906 -6.34315 87.3308
lradius 58.2794
lwrist 10.2551
lhand -25.2844 -22.1285
lfingers 7.12502
lthumb 1.23687 7.84762
rfemur -45.2101 -3.04239 27.1236
rtibia 38.3453
rfoot -10.8018 3.93185
rtoes 0.338384
lfemur -17.4804 1.58823 -16.1651
ltibia 63.2265
lfoot 23.095 -15.369
ltoes -24.1159
349
root 0.217685 15.9589 32.1412 16.8614 7.41711 -1.38073
lowerback -14.226 -0.691468 2.43468
upperback -4.27387 -1.34824 2.41329
thorax 3.46359 -0.654275 0.924232
lowerneck -6.02867 -2.31729 -2.45167
upperneck 10.6161 -2.93512 0.6258
head 4.66055 -1.51186 0.4757
rclavicle -2.36802e-014 -3.97569e-015
rhumerus -76.4492 -45.9818 -19.7233
rradius 10.4844
rwrist 50.9928
rhand -15.7249 -36.6151
rfingers 7.12502
rthumb 10.4655 -66.3346
lclavicle -2.36802e-014 -3.97569e-015
lhumerus -30.8107 -6.01918 87.7913
lradius 56.755
lwrist 10.1985
lhand -25.0233 -22.1106
lfingers 7.12502
lthumb 1.48903 7.86395
rfemur -44.7112 -2.50368 27.2201
rtibia 38.4182
rfoot -11.5559 3.52346
rtoes -0.636186
lfemur -19.6426 2.07008 -16.0438
ltibia 65.5323
lfoot 21.5281 -14.1895
ltoes -21.8544
350
root 0.20773 15.9848 32.353 17.1911 7.23822 -1.40192
lowerback -14.6335 -0.552969 2.27004
upperback -4.35273 -1.1552 2.42465
thorax 3.60424 -0.557538 1.05843
lowerneck -5.5424 -2.29727 -2.42365
upperneck 10.3286 -2.92818 0.678847
head 4.45669 -1.50462 0.495748
rclavicle -3.40419e-015 1.59028e-014
rhumerus -72.8569 -46.0066 -24.2638
rradius 10.9513
rwrist 48.3144
rhand -14.3736 -36.6633
rfingers 7.12502
rthumb 11.7689 -66.3126
lclavicle -3.40419e-015 1.59028e-014
lhumerus -31.2083 -5.58432 88.1244
lradius 54.9012
lwrist 9.77475
lhand -24.8642 -22.2688
lfingers 7.12502
lthumb 1.64274 7.70461
rfemur -44.1908 -2.30317 27.3202
rtibia 38.3782
rfoot -12.3163 3.39688
rtoes -0.810255
lfemur -21.8582 2.42272 -16.0319
ltibia 67.6219
lfoot 19.706 -12.586
ltoes -19.8179
351
root 0.204953 16.0169 32.5609 17.3124 7.22328 -1.43528
lowerback -14.7784 -0.541945 2.18927
upperback -4.4616 -1.1323 2.47113
thorax 3.57022 -0.546398 1.15612
lowerneck -5.74264 -2.43307 -2.19936
upperneck 10.9624 -3.08847 0.30418
head 4.71921 -1.59528 0.31355
rclavicle -1.26725e-015 4.77083e-015
rhumerus -70.3944 -46.1099 -27.073
rradius 11.1
rwrist 47.6054
rhand -14.4073 -35.0942
rfingers 7.12502
rthumb 11.7364 -64.7454
lclavicle -1.26725e-015 4.77083e-015
lhumerus -31.7021 -4.7511 88.3137
lradius 52.9475
lwrist 8.55751
lhand -25.2059 -22.127
lfingers 7.12502
lthumb 1.31275 7.84868
rfemur -43.3705 -2.39891 27.4693
rtibia 38.2258
rfoot -13.1225 3.38828
rtoes -0.795153
lfemur -23.8016 2.62237 -16.0461
ltibia 69.4541
lfoot 17.1972 -12.0706
ltoes -15.2933
352
root 0.20846 16.0507 32.7559 17.4284 7.37312 -1.40921
lowerback -14.8104 -0.540512 2.14731
upperback -4.50533 -1.12488 2.50295
thorax 3.54286 -0.542689 1.21449
lowerneck -5.42539 -2.39507 -2.22132
upperneck 10.7611 -3.04424 0.322721
head 4.58063 -1.57318 0.331702
rclavicle -1.19519e-014 2.22639e-014
rhumerus -68.7295 -46.9017 -28.4319
rradius 11.0788
rwrist 47.619
rhand -15.1719 -33.5055
rfingers 7.12502
rthumb 10.9989 -63.1974
lclavicle -1.19519e-014 2.22639e-014
lhumerus -31.7424 -4.1702 88.5173
lradius 50.7027
lwrist 7.61903
lhand -24.6976 -20.8985
lfingers 7.12502
lthumb 1.80366 9.07366
rfemur -42.5118 -2.77934 27.6088
rtibia 37.9213
rfoot -13.8145 3.49581
rtoes -1.48784
lfemur -25.7433 2.54939 -16.1436
ltibia 70.9501
lfoot 14.8725 -11.1037
ltoes -12.1874
353
root 0.211123 16.0821 32.9583 17.4975 7.7845 -1.56157
lowerback -14.9825 -0.574217 2.36495
upperback -4.50054 -1.21095 2.58438
thorax 3.63804 -0.583729 1.16064
lowerneck -5.49389 -2.31329 -2.15661
upperneck 10.9041 -2.91738 0.134981
head 4.63985 -1.51796 0.262266
rclavicle 5.71506e-015 -1.98785e-014
rhumerus -64.3785 -46.4169 -33.5594
rradius 11.5419
rwrist 45.3096
rhand -14.7223 -33.592
rfingers 7.12502
rthumb 11.4326 -63.2603
lclavicle 5.71506e-015 -1.98785e-014
lhumerus -31.3945 -3.91156 88.8122
lradius 47.6638
lwrist 7.62553
lhand -24.4027 -21.2109
lfingers 7.12502
lthumb 2.08841 8.75858
rfemur -41.5427 -3.40889 28.0296
rtibia 37.5573
rfoot -14.4961 3.60657
rtoes -2.6931
lfemur -27.6168 2.29336 -15.9409
ltibia 72.1856
lfoot 12.5511 -9.91239
ltoes -9.76004
354
root 0.21358 16.1409 33.1737 17.4832 8.04442 -1.39228
lowerback -15.2356 -0.660991 2.20653
upperback -4.43499 -1.31385 2.58144
thorax 3.84747 -0.633064 1.22588
lowerneck -5.42723 -2.30754 -2.21115
upperneck 11.0699 -2.8927 0.0231035
head 4.68574 -1.51458 0.235141
rclavicle 1.4561e-014 -2.38542e-014
rhumerus -59.1458 -44.9723 -39.9853
rradius 12.2777
rwrist 41.4834
rhand -14.194 -34.0289
rfingers 7.12502
rthumb 11.942 -63.6682
lclavicle 1.4561e-014 -2.38542e-014
lhumerus -31.2769 -3.39088 89.037
lradius 44.7379
lwrist 7.5687
lhand -24.3925 -21.9228
lfingers 7.12502
lthumb 2.09825 8.04661
rfemur -40.3364 -3.87694 27.9794
rtibia 37.145
rfoot -15.2333 3.68894
rtoes -2.40948
lfemur -29.1585 1.9974 -16.1555
ltibia 72.9716
lfoot 10.3912 -8.74327
ltoes -8.38864
355
root 0.221749 16.1754 33.3689 17.7989 7.42719 -1.08769
lowerback -15.4582 -0.473273 1.89263
upperback -4.52083 -1.01799 2.45581
thorax 3.8779 -0.487707 1.32387
lowerneck -5.35212 -2.28987 -2.31586
upperneck 11.3186 -2.85937 0.0205141
head 4.76374 -1.504 0.254008
rclavicle 4.72114e-016 -5.56597e-015
rhumerus -54.592 -43.3864 -45.4718
rradius 12.7554
rwrist 36.6579
rhand -15.5655 -33.9919
rfingers 7.12502
rthumb 10.6193 -63.7036
lclavicle 4.72114e-016 -5.56597e-015
lhumerus -31.409 -2.7085 89.1405
lradius 42.1059
lwrist 6.927
lhand -24.2435 -22.267
lfingers 7.12502
lthumb 2.24224 7.70098
rfemur -39.7407 -3.61843 27.5456
rtibia 36.8575
rfoot -15.6994 4.12665
rtoes -0.83833
lfemur -31.0708 2.37068 -16.8939
ltibia 73.7073
lfoot 8.3615 -7.59676
ltoes -8.28099
356
root 0.217671 16.2012 33.5665 17.8832 6.87422 -0.72052
lowerback -15.4739 -0.375576 1.37454
upperback -4.5778 -0.802887 2.32355
thorax 3.82955 -0.383094 1.51737
lowerneck -5.21258 -2.19372 -2.22741
upperneck 11.5203 -2.73195 -0.0589181
head 4.80442 -1.44271 0.219038
rclavicle 5.66536e-015 -7.95139e-015
rhumerus -50.5519 -41.6078 -50.3364
rradius 13.2198
rwrist 32.3521
rhand -16.5422 -34.0647
rfingers 7.12502
rthumb 9.67704 -63.8224
lclavicle 5.66536e-015 -7.95139e-015
lhumerus -31.7354 -1.70374 89.0288
lradius 39.659
lwrist 5.94693
lhand -23.6024 -22.3067
lfingers 7.12502
lthumb 2.86133 7.65386
rfemur -38.8694 -3.17516 27.0174
rtibia 36.5277
rfoot -16.145 4.12086
rtoes -1.02482
lfemur -32.6323 2.72788 -17.5951
ltibia 74.2281
lfoot 6.67212 -6.46776
ltoes -7.38221
357
root 0.207412 16.2054 33.7626 17.8015 6.38665 -0.492335
lowerback -15.5949 -0.34864 0.875667
upperback -4.4439 -0.695668 2.26448
thorax 4.03939 -0.33191 1.7574
lowerneck -5.1357 -2.0915 -2.02673
upperneck 11.5252 -2.59945 -0.194799
head 4.7823 -1.37588 0.145744
rclavicle -1.28216e-014 -1.03368e-014
rhumerus -47.1302 -40.0706 -54.3224
rradius 13.9732
rwrist 29.5305
rhand -16.7498 -33.2106
rfingers 7.12502
rthumb 9.47678 -62.9775
lclavicle -1.28216e-014 -1.03368e-014
lhumerus -31.9404 -0.675563 88.7854
lradius 37.3239
lwrist 4.93525
lhand -23.0108 -21.206
lfingers 7.12502
lthumb 3.43263 8.74612
rfemur -37.8454 -2.59698 26.6372
rtibia 36.2895
rfoot -16.6752 3.78795
rtoes -1.63275
lfemur -34.0734 3.15502 -18.0896
ltibia 74.6799
lfoot 5.17367 -5.39719
ltoes -6.44859
358
root 0.20839 16.2277 33.965 17.6564 6.3529 -0.673671
lowerback -15.4644 -0.2932 1.06924
upperback -4.51468 -0.649204 2.30542
thorax 3.89167 -0.308132 1.69957
lowerneck -4.97831 -2.0676 -2.04047
upperneck 11.768 -2.55286 -0.326687
head 4.83728 -1.36173 0.106035
rclavicle 1.08586e-014 3.18055e-015
rhumerus -43.9391 -37.2393 -58.6355
rradius 15.1845
rwrist 25.026
rhand -17.1884 -32.7896
rfingers 7.12502
rthumb 9.05355 -62.5753
lclavicle 1.08586e-014 3.18055e-015
lhumerus -32.4913 0.189737 88.6488
lradius 34.9298
lwrist 4.03434
lhand -22.6128 -19.876
lfingers 7.12502
lthumb 3.81701 10.0695
rfemur -36.6898 -2.56583 26.8404
rtibia 36.0796
rfoot -17.4003 3.69119
rtoes -2.24018
lfemur -35.3612 3.26479 -18.0772
ltibia 74.8331
lfoot 3.37712 -4.25257
ltoes -8.38741
359
root 0.217467 16.2456 34.1587 17.3976 6.28472 -0.742989
lowerback -15.1055 -0.23183 1.2623
upperback -4.56141 -0.586097 2.28955
thorax 3.64598 -0.276946 1.585
lowerneck -4.93384 -2.03541 -2.01643
upperneck 12.126 -2.48839 -0.511535
head 4.95703 -1.3407 0.0401169
rclavicle 3.8266e-015 -1.27222e-014
rhumerus -41.0034 -34.382 -62.4949
rradius 16.3858
rwrist 20.7274
rhand -17.3108 -33.5608
rfingers 7.12502
rthumb 8.93539 -63.3516
lclavicle 3.8266e-015 -1.27222e-014
lhumerus -32.9129 1.12271 88.4181
lradius 32.3972
lwrist 2.94785
lhand -22.1006 -19.5211
lfingers 7.12502
lthumb 4.31165 10.415
rfemur -35.4319 -2.82242 26.9621
rtibia 35.7515
rfoot -18.1012 3.8056
rtoes -3.03491
lfemur -36.4351 3.27297 -18.2256
ltibia 74.7389
lfoot 1.53844 -2.88668
ltoes -10.7307
360
root 0.210417 16.2452 34.3211 17.0586 5.62051 -0.0185896
lowerback -14.1197 -0.209137 0.329006
upperback -4.65237 -0.392059 2.07318
thorax 3.02124 -0.18092 1.91822
lowerneck -4.94973 -2.01194 -1.86541
upperneck 12.9387 -2.43653 -0.753327
head 4.70649 -1.32663 -0.0600455
rclavicle -2.00027e-014 -1.35174e-014
rhumerus -38.6197 -31.8342 -65.6241
rradius 17.6227
rwrist 17.6738
rhand -17.3767 -34.0263
rfingers 7.12502
rthumb 8.87184 -63.8198
lclavicle -2.00027e-014 -1.35174e-014
lhumerus -33.3127 2.47085 87.9023
lradius 29.8535
lwrist 1.27977
lhand -21.6044 -19.8132
lfingers 7.12502
lthumb 4.79079 10.1126
rfemur -34.1964 -2.35424 26.0252
rtibia 35.3936
rfoot -18.4207 3.55458
rtoes -3.31973
lfemur -37.3953 3.58851 -19.337
ltibia 74.4022
lfoot -0.190757 -1.5487
ltoes -12.6557
